<svg width="1929" height="379" viewBox="0 0 1929 379" fill="none" xmlns="http://www.w3.org/2000/svg">
<g filter="url(#filter0_d_612_379)">
<path d="M260.713 300.386C260.713 301.967 260.871 304.285 261.188 307.341C261.504 310.502 261.662 312.873 261.662 314.453C261.662 320.459 259.554 325.465 255.339 329.469C251.125 333.473 245.856 335.475 239.534 335.475C229.945 335.475 223.412 331.523 219.934 323.621C217.722 318.563 216.615 310.818 216.615 300.386C216.615 296.593 216.931 291.429 217.563 284.896C204.603 284.896 180.631 285.107 145.647 285.529C111.19 285.845 87.2708 286.003 73.8885 286.003C73.5724 300.333 73.4144 309.237 73.4144 312.715C73.4144 318.721 71.3069 323.726 67.092 327.73C62.9825 331.734 57.7666 333.736 51.4443 333.736C45.1219 333.736 39.8533 331.734 35.6384 327.73C31.5289 323.726 29.4742 318.721 29.4742 312.715C29.4742 308.078 29.5795 301.124 29.7903 291.851C30.001 282.578 30.1064 275.624 30.1064 270.987C29.3688 267.826 29 265.982 29 265.455C29 254.707 36.5868 247.858 51.7604 244.908C72.6241 200.44 83.0559 151.337 83.0559 97.5973C83.0559 93.6985 82.4237 88.0084 81.1592 80.527C80.0001 72.9402 79.4206 67.4081 79.4206 63.9309C79.4206 50.0217 89.4309 42.9618 109.452 42.7511L189.745 42.4349C189.429 42.4349 197.595 42.1188 214.244 41.4866C217.616 39.6953 221.304 38.7996 225.308 38.7996C231.631 38.7996 236.899 40.8017 241.114 44.8058C245.329 48.81 247.436 53.8151 247.436 59.8214C247.436 70.4639 247.595 86.3751 247.911 107.555C248.227 128.629 248.385 144.435 248.385 154.972C248.385 172.886 247.805 203.075 246.646 245.54L247.911 246.172C257.921 249.122 262.926 255.814 262.926 266.245C262.926 270.039 262.557 275.729 261.82 283.316C261.082 290.903 260.713 296.593 260.713 300.386ZM203.496 84.4784C197.49 84.5838 189.587 84.5838 179.788 84.4784C167.564 84.2677 159.661 84.1623 156.079 84.1623C149.335 84.1623 139.693 84.3204 127.154 84.6365C127.154 85.3741 127.154 89.9578 127.154 98.3876C127.154 119.567 124.836 143.434 120.2 169.988C115.036 199.071 108.345 223.359 100.126 242.853C107.502 242.853 119.199 242.537 135.215 241.904C150.494 241.378 162.243 241.114 170.462 241.114C177.522 241.114 188.112 241.378 202.232 241.904C202.337 232.526 202.706 218.143 203.338 198.755C203.97 180.631 204.287 166.036 204.287 154.972C204.287 150.863 204.023 127.365 203.496 84.4784Z" fill="#FD677B"/>
<path d="M464.59 80.0528C462.482 80.0528 460.269 79.7367 457.951 79.1045C440.881 74.4681 424.285 72.1499 408.163 72.1499C400.26 72.1499 391.777 72.7821 382.715 74.0466C373.653 75.3111 364.012 77.2078 353.791 79.7367C353.791 93.7512 353.317 114.562 352.368 142.17C358.269 141.748 378.869 139.799 414.169 136.322C434.295 134.319 447.045 133.318 452.419 133.318C458.636 133.318 463.957 135.321 468.383 139.325C472.809 143.223 475.021 148.439 475.021 154.972C475.021 167.512 468.33 174.624 454.948 176.31C446.518 176.943 433.926 177.996 417.172 179.471C402.209 181.157 379.66 183.212 349.523 185.636C348.786 199.018 348.417 209.819 348.417 218.038C348.417 238.691 349.629 250.44 352.052 253.285C353.211 254.654 359.85 255.339 371.967 255.339C378.5 255.339 388.353 255.181 401.524 254.865C414.696 254.549 424.548 254.391 431.081 254.391C433.189 254.391 436.297 254.075 440.407 253.443C444.516 252.81 447.572 252.494 449.574 252.494C455.686 252.494 460.902 254.233 465.222 257.71C470.174 261.609 472.651 267.088 472.651 274.148C472.651 285.95 466.486 293.01 454.158 295.328C443.62 297.33 421.756 298.331 388.564 298.331C354.212 298.331 331.821 293.695 321.389 284.422C309.903 274.201 304.16 252.073 304.16 218.038C304.16 203.918 305.161 182.738 307.164 154.498C309.271 126.153 310.325 104.973 310.325 90.9588C310.325 87.2708 309.798 81.8441 308.744 74.6788C307.69 67.4082 307.164 61.9288 307.164 58.2408C307.164 42.2242 314.54 34.2159 329.292 34.2159C333.928 34.2159 338.196 35.5331 342.094 38.1674C354.318 35.1116 365.909 32.8461 376.867 31.3709C387.931 29.7903 398.363 29 408.163 29C434.717 29 455.949 32.0558 471.86 38.1674C481.554 41.8554 486.402 48.5465 486.402 58.2408C486.402 63.7201 484.505 68.5672 480.711 72.7821C476.497 77.6293 471.123 80.0528 464.59 80.0528Z" fill="#FD677B"/>
<path d="M748.285 63.4567C746.178 71.1489 745.124 77.84 745.124 83.5301C745.124 86.4805 744.808 91.0642 744.176 97.2812C743.649 103.393 743.385 107.924 743.385 110.874C743.385 120.885 742.858 135.742 741.805 155.447C740.751 175.151 740.224 190.009 740.224 200.019C740.224 207.711 740.804 219.197 741.963 234.476C743.122 249.755 743.701 261.24 743.701 268.932C743.701 274.728 741.647 279.628 737.537 283.632C733.428 287.636 728.317 289.638 722.206 289.638C715.989 289.638 710.615 287.636 706.084 283.632C701.553 279.733 699.287 274.939 699.287 269.249C699.287 261.556 698.918 250.018 698.181 234.634C697.548 219.249 697.232 207.711 697.232 200.019C697.232 194.013 697.338 188.692 697.548 184.055C681.005 184.793 660.563 187.374 636.222 191.8C615.99 195.488 595.759 199.229 575.527 203.022C575.317 210.187 574.579 222.147 573.315 238.901C572.261 253.653 571.734 265.719 571.734 275.097C571.734 280.892 569.679 285.792 565.57 289.796C561.46 293.8 556.35 295.802 550.238 295.802C544.127 295.802 539.016 293.8 534.907 289.796C530.797 285.792 528.742 280.892 528.742 275.097C528.742 264.454 529.638 248.543 531.429 227.363C533.326 206.183 534.274 190.272 534.274 179.63C534.274 166.142 534.59 145.858 535.223 118.777C535.855 91.5911 536.171 71.2542 536.171 57.7666C536.171 51.9711 538.226 47.0713 542.335 43.0672C546.445 39.063 551.555 37.061 557.667 37.061C563.779 37.061 568.889 39.063 572.999 43.0672C577.108 47.0713 579.163 51.9711 579.163 57.7666C579.163 65.7749 578.847 77.84 578.214 93.9619C577.688 109.978 577.424 121.991 577.424 129.999C577.424 132.634 577.055 137.691 576.318 145.173C575.686 152.127 575.422 157.449 575.527 161.137L636.222 149.756C659.931 145.542 680.373 143.118 697.548 142.486C697.97 135.426 698.655 116.459 699.603 85.5849C699.814 77.4712 702.29 68.1458 707.032 57.6085C712.933 44.6478 719.624 38.1674 727.105 38.1674C732.69 38.1674 737.643 40.0114 741.963 43.6994C746.599 47.7036 748.917 52.7087 748.917 58.7149C748.917 60.2955 748.707 61.8761 748.285 63.4567Z" fill="#FD677B"/>
<path d="M868.39 284.896C863.438 284.896 856.641 284.686 848.001 284.264C838.096 283.843 831.299 283.579 827.611 283.474C825.293 284.106 822.975 284.422 820.657 284.422C805.167 284.422 797.422 273.569 797.422 251.862C797.422 249.017 798.16 240.113 799.635 225.15C801.637 205.34 802.638 186.795 802.638 169.514C802.638 157.607 801.953 140.853 800.583 119.251C799.319 97.5446 798.687 80.7377 798.687 68.8307C798.687 51.8658 806.063 43.3833 820.815 43.3833C828.191 43.3833 834.039 45.6488 838.359 50.1798C842.258 54.2893 844.208 59.4526 844.208 65.6695C844.208 80.8431 845.05 101.707 846.736 128.261C852.216 128.05 856.747 127.944 860.329 127.944C893.838 127.944 918.495 132.897 934.301 142.802C954.216 155.236 964.174 177.101 964.174 208.396C964.174 234.95 954.479 254.813 935.091 267.984C918.548 279.259 896.314 284.896 868.39 284.896ZM867.126 169.356C861.963 169.356 855.377 169.619 847.369 170.146C847.474 172.359 847.527 174.73 847.527 177.259C847.527 188.744 846.315 210.556 843.891 242.695C853.796 242.905 861.963 243.011 868.39 243.011C902.847 243.011 920.076 231.473 920.076 208.396C920.076 192.38 915.65 181.632 906.799 176.152C899.633 171.621 886.409 169.356 867.126 169.356Z" fill="#FD677B"/>
<path d="M1393.74 300.386C1393.74 301.967 1393.9 304.285 1394.21 307.341C1394.53 310.502 1394.69 312.873 1394.69 314.453C1394.69 320.459 1392.58 325.465 1388.36 329.469C1384.15 333.473 1378.88 335.475 1372.56 335.475C1362.97 335.475 1356.44 331.523 1352.96 323.621C1350.75 318.563 1349.64 310.818 1349.64 300.386C1349.64 296.593 1349.96 291.429 1350.59 284.896C1337.63 284.896 1313.66 285.107 1278.67 285.529C1244.21 285.845 1220.3 286.003 1206.91 286.003C1206.6 300.333 1206.44 309.237 1206.44 312.715C1206.44 318.721 1204.33 323.726 1200.12 327.73C1196.01 331.734 1190.79 333.736 1184.47 333.736C1178.15 333.736 1172.88 331.734 1168.66 327.73C1164.55 323.726 1162.5 318.721 1162.5 312.715C1162.5 308.078 1162.6 301.124 1162.81 291.851C1163.03 282.578 1163.13 275.624 1163.13 270.987C1162.39 267.826 1162.02 265.982 1162.02 265.455C1162.02 254.707 1169.61 247.858 1184.79 244.908C1205.65 200.44 1216.08 151.337 1216.08 97.5973C1216.08 93.6985 1215.45 88.0084 1214.18 80.527C1213.02 72.9402 1212.45 67.4081 1212.45 63.9309C1212.45 50.0217 1222.46 42.9618 1242.48 42.7511L1322.77 42.4349C1322.45 42.4349 1330.62 42.1188 1347.27 41.4866C1350.64 39.6953 1354.33 38.7996 1358.33 38.7996C1364.66 38.7996 1369.92 40.8017 1374.14 44.8058C1378.35 48.81 1380.46 53.8151 1380.46 59.8214C1380.46 70.4639 1380.62 86.3751 1380.94 107.555C1381.25 128.629 1381.41 144.435 1381.41 154.972C1381.41 172.886 1380.83 203.075 1379.67 245.54L1380.94 246.172C1390.95 249.122 1395.95 255.814 1395.95 266.245C1395.95 270.039 1395.58 275.729 1394.84 283.316C1394.11 290.903 1393.74 296.593 1393.74 300.386ZM1336.52 84.4784C1330.51 84.5838 1322.61 84.5838 1312.81 84.4784C1300.59 84.2677 1292.69 84.1623 1289.1 84.1623C1282.36 84.1623 1272.72 84.3204 1260.18 84.6365C1260.18 85.3741 1260.18 89.9578 1260.18 98.3876C1260.18 119.567 1257.86 143.434 1253.22 169.988C1248.06 199.071 1241.37 223.359 1233.15 242.853C1240.53 242.853 1252.22 242.537 1268.24 241.904C1283.52 241.378 1295.27 241.114 1303.49 241.114C1310.55 241.114 1321.14 241.378 1335.26 241.904C1335.36 232.526 1335.73 218.143 1336.36 198.755C1337 180.631 1337.31 166.036 1337.31 154.972C1337.31 150.863 1337.05 127.365 1336.52 84.4784Z" fill="#FD677B"/>
<path d="M1659.57 63.4567C1657.47 71.1489 1656.41 77.84 1656.41 83.5301C1656.41 86.4805 1656.1 91.0642 1655.46 97.2812C1654.94 103.393 1654.67 107.924 1654.67 110.874C1654.67 120.885 1654.15 135.742 1653.09 155.447C1652.04 175.151 1651.51 190.009 1651.51 200.019C1651.51 207.711 1652.09 219.197 1653.25 234.476C1654.41 249.755 1654.99 261.24 1654.99 268.932C1654.99 274.728 1652.93 279.628 1648.83 283.632C1644.72 287.636 1639.6 289.638 1633.49 289.638C1627.28 289.638 1621.9 287.636 1617.37 283.632C1612.84 279.733 1610.57 274.939 1610.57 269.249C1610.57 261.556 1610.21 250.018 1609.47 234.634C1608.84 219.249 1608.52 207.711 1608.52 200.019C1608.52 194.013 1608.63 188.692 1608.84 184.055C1592.29 184.793 1571.85 187.374 1547.51 191.8C1527.28 195.488 1507.05 199.229 1486.82 203.022C1486.6 210.187 1485.87 222.147 1484.6 238.901C1483.55 253.653 1483.02 265.719 1483.02 275.097C1483.02 280.892 1480.97 285.792 1476.86 289.796C1472.75 293.8 1467.64 295.802 1461.53 295.802C1455.41 295.802 1450.3 293.8 1446.19 289.796C1442.08 285.792 1440.03 280.892 1440.03 275.097C1440.03 264.454 1440.93 248.543 1442.72 227.363C1444.61 206.183 1445.56 190.272 1445.56 179.63C1445.56 166.142 1445.88 145.858 1446.51 118.777C1447.14 91.5911 1447.46 71.2542 1447.46 57.7666C1447.46 51.9711 1449.51 47.0713 1453.62 43.0672C1457.73 39.063 1462.84 37.061 1468.95 37.061C1475.07 37.061 1480.18 39.063 1484.29 43.0672C1488.4 47.0713 1490.45 51.9711 1490.45 57.7666C1490.45 65.7749 1490.13 77.84 1489.5 93.9619C1488.98 109.978 1488.71 121.991 1488.71 129.999C1488.71 132.634 1488.34 137.691 1487.61 145.173C1486.97 152.127 1486.71 157.449 1486.82 161.137L1547.51 149.756C1571.22 145.542 1591.66 143.118 1608.84 142.486C1609.26 135.426 1609.94 116.459 1610.89 85.5849C1611.1 77.4712 1613.58 68.1458 1618.32 57.6085C1624.22 44.6478 1630.91 38.1674 1638.39 38.1674C1643.98 38.1674 1648.93 40.0114 1653.25 43.6994C1657.89 47.7036 1660.21 52.7087 1660.21 58.7149C1660.21 60.2955 1659.99 61.8761 1659.57 63.4567Z" fill="#FD677B"/>
<path d="M1860.13 288.216C1853.81 288.216 1848.54 286.161 1844.32 282.051C1840.11 277.836 1838 272.726 1838 266.72C1838 261.03 1837.79 252.494 1837.37 241.114C1836.95 229.734 1836.74 221.252 1836.74 215.667C1797.33 227.89 1760.55 249.965 1726.41 281.893C1721.78 286.319 1716.56 288.532 1710.76 288.532C1704.65 288.532 1699.38 286.371 1694.96 282.051C1690.53 277.731 1688.32 272.673 1688.32 266.878C1688.32 261.82 1690.16 257.131 1693.85 252.81C1708.39 236.162 1732.05 218.617 1764.82 200.177C1725.1 185.53 1705.23 164.719 1705.23 137.744C1705.23 104.341 1727.73 76.2594 1772.72 53.499C1783.05 48.3358 1795.59 44.8058 1810.34 42.9091C1811.5 42.8038 1824.62 41.8027 1849.7 39.906C1859.18 39.1684 1866.61 42.3823 1871.98 49.5476C1876.09 55.1323 1878.15 61.3493 1878.15 68.1984C1878.15 82.5291 1878.68 103.867 1879.73 132.212C1880.89 160.557 1881.47 181.79 1881.47 195.91C1881.47 203.812 1881.63 215.614 1881.94 231.315C1882.26 247.015 1882.42 258.817 1882.42 266.72C1882.42 272.726 1880.26 277.836 1875.94 282.051C1871.72 286.161 1866.45 288.216 1860.13 288.216ZM1833.42 84.4784C1829.73 84.6892 1824.25 85.1107 1816.98 85.7429C1801.28 87.3235 1786.32 93.3297 1772.09 103.762C1757.13 114.615 1749.65 125.942 1749.65 137.744C1749.65 140.062 1751.91 143.487 1756.44 148.018C1760.97 152.549 1765.87 156.184 1771.14 158.924C1783.58 165.352 1802.75 168.565 1828.68 168.565C1830.15 168.565 1832.58 168.513 1835.95 168.407C1835.84 163.139 1835.31 149.756 1834.37 128.261C1833.63 110.769 1833.31 96.1748 1833.42 84.4784Z" fill="#FD677B"/>
<path d="M279.11 140.217L289.721 299.632C289.753 297.892 289.893 295.259 290.193 291.576L322.17 285.09C321.903 284.87 321.642 284.647 321.389 284.422C309.903 274.201 304.16 252.073 304.16 218.038C304.16 203.918 305.161 182.738 307.164 154.498C308.623 134.863 309.578 118.666 310.026 105.907L280.968 106.973C280.617 116.099 280.003 127.159 279.11 140.217Z" fill="#FD677B"/>
<path fill-rule="evenodd" clip-rule="evenodd" d="M200.722 15.8319L200.639 15.8762L213.091 39.3164C213.159 40.0501 213.213 40.7867 213.253 41.5243L214.244 41.4866C217.616 39.6953 221.304 38.7996 225.308 38.7996C231.631 38.7996 236.899 40.8017 241.114 44.8058C245.329 48.81 247.436 53.8151 247.436 59.8214C247.436 70.4639 247.595 86.3751 247.911 107.555C248.227 128.629 248.385 144.435 248.385 154.972C248.385 172.886 247.805 203.075 246.646 245.54L247.911 246.172C257.921 249.122 262.926 255.814 262.926 266.245C262.926 270.039 262.557 275.729 261.82 283.316C261.082 290.902 260.713 296.593 260.713 300.386C260.713 301.967 260.871 304.285 261.188 307.341C261.504 310.502 261.662 312.873 261.662 314.453C261.662 320.459 259.554 325.465 255.339 329.469C251.125 333.473 245.856 335.475 239.534 335.475C229.945 335.475 223.412 331.523 219.934 323.621C218.816 321.065 217.981 317.824 217.428 313.896C216.886 310.051 216.615 305.547 216.615 300.386C216.615 296.593 216.931 291.429 217.563 284.896C210.826 284.896 201.113 284.953 188.424 285.067C176.703 285.172 162.445 285.326 145.647 285.529C111.19 285.845 87.2708 286.003 73.8885 286.003C73.5724 300.333 73.4144 309.237 73.4144 312.715C73.4144 318.721 71.3069 323.726 67.092 327.73C62.9825 331.734 57.7666 333.736 51.4443 333.736C45.1219 333.736 39.8533 331.734 35.6384 327.73C31.5289 323.726 29.4742 318.721 29.4742 312.715C29.4742 308.078 29.5795 301.124 29.7903 291.851C30.001 282.578 30.1064 275.624 30.1064 270.987C29.3688 267.826 29 265.982 29 265.455C29 254.707 36.5868 247.858 51.7604 244.908C72.6241 200.441 83.0559 151.337 83.0559 97.5973C83.0559 93.6985 82.4237 88.0084 81.1592 80.527C80.0001 72.9402 79.4206 67.4082 79.4206 63.9309C79.4206 50.0217 89.4309 42.9618 109.452 42.7511L189.745 42.4349C189.733 42.4349 189.733 42.4345 189.745 42.4336C189.755 42.4329 189.774 42.4318 189.802 42.4304L189.745 13.435C189.847 13.435 190.141 13.4352 190.519 13.4454C190.698 13.4502 191.081 13.4619 191.566 13.4925L191.584 13.4936C191.788 13.5054 193.35 13.596 195.247 13.9631C196.153 14.163 198.374 14.8904 200.722 15.8319ZM170.462 241.114C162.243 241.114 150.494 241.378 135.215 241.904C133.974 241.953 132.759 242.001 131.57 242.046C117.412 242.584 106.931 242.853 100.126 242.853C103.815 234.105 107.195 224.391 110.268 213.711C114.043 200.594 117.353 186.019 120.2 169.988C124.836 143.434 127.154 119.567 127.154 98.3876V84.6365C139.693 84.3204 149.335 84.1623 156.079 84.1623C159.661 84.1623 167.564 84.2677 179.788 84.4784C187.182 84.558 193.496 84.5775 198.731 84.537C200.434 84.5238 202.022 84.5043 203.496 84.4784C203.631 95.4025 203.748 105.069 203.848 113.477C204.14 138.078 204.287 151.91 204.287 154.972C204.287 166.036 203.97 180.631 203.338 198.755C203.173 203.814 203.026 208.532 202.897 212.909C202.531 225.308 202.31 234.973 202.232 241.904C189.856 241.443 180.191 241.183 173.239 241.126C172.259 241.118 171.334 241.114 170.462 241.114Z" fill="#FD677B"/>
<path d="M449.574 252.494C454.881 252.494 459.513 253.805 463.469 256.427L495.778 249.874C492.821 244.358 488.695 239.308 483.283 235.021C473.303 227.036 461.533 223.494 449.574 223.494C445.24 223.494 440.361 224.109 435.997 224.78C434.283 225.044 432.99 225.208 432.059 225.303C431.367 225.373 431.034 225.388 430.986 225.391C424.093 225.393 413.988 225.558 400.828 225.874C391.131 226.106 383.375 226.249 377.496 226.308C377.445 223.82 377.417 221.068 377.417 218.038C377.417 216.311 377.435 214.437 377.472 212.414C395.156 210.89 409.376 209.528 420.063 208.329C436.614 206.873 448.938 205.842 457.117 205.229L457.847 205.174L458.573 205.083C469.423 203.716 481.67 199.633 491.125 189.582C500.847 179.248 504.021 166.451 504.021 154.972C504.021 141.174 498.987 127.715 487.7 117.694C483.235 113.682 478.305 110.581 473.053 108.38C480.986 107.094 488.359 103.978 494.777 99.1306L421.841 101.806C428.099 102.399 434.51 103.399 441.08 104.824C433.457 105.349 423.386 106.262 411.311 107.463C400.131 108.564 390.482 109.506 382.338 110.293C382.396 107.919 382.449 105.622 382.496 103.403C382.922 103.334 383.347 103.268 383.769 103.202L353.47 104.314C353.409 107.087 353.339 109.985 353.26 113.007C353.035 121.697 352.738 131.418 352.368 142.17C356.122 141.902 365.824 141.015 381.475 139.51C390.427 138.65 401.325 137.587 414.169 136.322C434.295 134.319 447.045 133.318 452.419 133.318C458.636 133.318 463.957 135.321 468.383 139.325C472.809 143.223 475.021 148.439 475.021 154.972C475.021 167.512 468.33 174.624 454.948 176.31C446.518 176.943 433.926 177.996 417.172 179.471C402.209 181.157 379.66 183.212 349.523 185.636C348.786 199.018 348.417 209.819 348.417 218.038C348.417 238.691 349.629 250.44 352.052 253.285C353.211 254.654 359.85 255.339 371.967 255.339C378.5 255.339 388.353 255.181 401.524 254.865C414.696 254.549 424.548 254.391 431.081 254.391C433.189 254.391 436.297 254.075 440.407 253.443C444.516 252.81 447.572 252.494 449.574 252.494Z" fill="#FD677B"/>
<path d="M535.223 118.777C535.399 111.195 535.551 104.147 535.678 97.6304L506.651 98.6951C506.532 104.704 506.392 111.171 506.23 118.1L503.423 98.8135L506.23 118.103C505.597 145.231 505.274 165.791 505.274 179.63C505.274 188.929 504.424 203.788 502.545 224.776L502.538 224.848L502.532 224.919C501.793 233.66 501.192 241.655 500.739 248.867L530.208 242.889C530.554 238.074 530.961 232.898 531.429 227.363C533.326 206.183 534.274 190.272 534.274 179.63C534.274 166.142 534.59 145.858 535.223 118.777Z" fill="#FD677B"/>
<path d="M576.318 145.173C575.686 152.127 575.422 157.449 575.527 161.137L636.222 149.756C656.876 146.085 675.051 143.772 690.747 142.819L648.082 118.404C642.589 119.239 636.943 120.174 631.146 121.204L631.012 121.228L606.446 125.834C606.516 118.448 606.762 108.213 607.196 95.0071L578.146 96.0726C577.665 111.038 577.424 122.347 577.424 129.999C577.424 130.376 577.417 130.803 577.401 131.28C577.311 134.132 576.95 138.763 576.318 145.173Z" fill="#FD677B"/>
<path d="M740.224 200.019C740.224 207.711 740.804 219.197 741.963 234.476C743.011 248.293 743.585 259.008 743.686 266.621L771.655 279.28C771.772 278.716 771.879 278.149 771.977 277.579C772.207 278.308 772.452 279.034 772.71 279.757L846.677 313.234L951.388 291.972L922.06 275.188C907.436 281.66 889.546 284.896 868.39 284.896C863.438 284.896 856.641 284.686 848.001 284.264C838.096 283.843 831.299 283.579 827.611 283.474C825.293 284.106 822.975 284.422 820.657 284.422C805.167 284.422 797.422 273.569 797.422 251.862C797.422 249.017 798.16 240.113 799.635 225.15C800.292 218.655 800.84 212.296 801.282 206.073L773.168 189.985C772.711 200.241 771.919 210.988 770.782 222.234L770.779 222.27L770.775 222.305C770.702 223.042 770.631 223.769 770.561 224.487L770.505 225.053L770.418 225.951C769.595 214.162 769.224 205.617 769.224 200.019C769.224 196.641 769.29 192.588 769.426 187.843L741.011 171.583C740.487 183.476 740.224 192.954 740.224 200.019Z" fill="#FD677B"/>
<path d="M865.821 243.006L844.756 230.951C844.487 234.699 844.199 238.614 843.891 242.695C852.521 242.878 859.831 242.982 865.821 243.006Z" fill="#FD677B"/>
<path d="M603.225 227.356C615.953 224.994 628.681 222.652 641.41 220.332L640.756 220.161L575.527 203.022C575.338 209.479 574.72 219.829 573.674 234.072L603.175 228.088L603.225 227.356Z" fill="#FD677B"/>
<path d="M697.548 184.055C688.905 184.441 679.197 185.329 668.425 186.721L665.644 190.184L641.801 219.858L641.423 220.33C651.23 218.547 660.249 217.099 668.501 215.967C668.642 220.988 668.838 226.624 669.085 232.857L698.698 246.26C698.552 242.665 698.38 238.79 698.181 234.634C697.84 226.334 697.591 219.154 697.433 213.094C697.299 207.92 697.232 203.561 697.232 200.019C697.232 194.013 697.338 188.691 697.548 184.055Z" fill="#FD677B"/>
<path d="M636.222 191.8C615.99 195.488 595.759 199.229 575.527 203.022L657.097 191.401V188.312C650.49 189.308 643.532 190.471 636.222 191.8Z" fill="#FD677B"/>
<path d="M665.644 190.184L668.425 186.721C664.772 187.194 660.995 187.724 657.097 188.312V191.401L665.644 190.184Z" fill="#FD677B"/>
<path d="M657.097 191.401L575.527 203.022L640.756 220.161L641.801 219.858L665.644 190.184L657.097 191.401Z" fill="#FD677B"/>
<path fill-rule="evenodd" clip-rule="evenodd" d="M290.044 304.455L290.039 304.406L290.193 291.576C293.39 296.88 297.304 301.81 302.11 306.086L302.122 306.097C312.832 315.617 326.792 320.491 340.126 323.252C353.96 326.116 370.292 327.331 388.564 327.331C421.208 327.331 445.855 326.42 459.548 323.823C469.941 321.864 481.266 317.224 489.872 307.368C495.888 300.479 499.184 292.638 500.667 284.839C502.552 294.551 507.295 303.382 514.668 310.567C524.571 320.215 537.11 324.802 550.238 324.802C563.367 324.802 575.906 320.215 585.808 310.567C595.583 301.042 600.734 288.625 600.734 275.097C600.734 266.693 601.211 255.405 602.237 241.024C602.587 236.386 602.9 232.071 603.175 228.088L641.41 220.332C628.681 222.652 615.953 224.994 603.225 227.356L603.175 228.088L573.674 234.072C573.56 235.635 573.44 237.245 573.315 238.901C572.261 253.653 571.734 265.719 571.734 275.097C571.734 280.892 569.679 285.792 565.57 289.796C561.46 293.8 556.35 295.802 550.238 295.802C544.127 295.802 539.016 293.8 534.907 289.796C530.797 285.792 528.742 280.892 528.742 275.097C528.742 267.236 529.231 256.5 530.208 242.889L500.739 248.867C500.465 253.23 500.246 257.307 500.083 261.089C499.117 257.209 497.693 253.444 495.778 249.874L463.469 256.427C459.513 253.805 454.881 252.494 449.574 252.494C447.572 252.494 444.516 252.81 440.407 253.443C436.297 254.075 433.189 254.391 431.081 254.391C424.548 254.391 414.696 254.549 401.524 254.865C388.353 255.181 378.5 255.339 371.967 255.339C359.85 255.339 353.211 254.654 352.052 253.285C349.629 250.44 348.417 238.691 348.417 218.038C348.417 209.819 348.786 199.018 349.523 185.636C379.66 183.212 402.209 181.157 417.172 179.471C433.926 177.996 446.518 176.943 454.948 176.31C468.33 174.624 475.021 167.512 475.021 154.972C475.021 148.439 472.809 143.223 468.383 139.325C463.957 135.321 458.636 133.318 452.419 133.318C447.045 133.318 434.295 134.319 414.169 136.322C401.325 137.587 390.427 138.65 381.475 139.51C365.824 141.015 356.122 141.902 352.368 142.17C352.738 131.418 353.035 121.697 353.26 113.007C353.339 109.985 353.409 107.087 353.47 104.314L383.769 103.202C384.765 103.049 385.749 102.904 386.723 102.768C394.659 101.661 401.79 101.15 408.163 101.15C412.64 101.15 417.198 101.366 421.841 101.806L494.777 99.1306C497.512 97.065 500.074 94.685 502.431 91.9986C504.056 90.1775 505.541 88.2676 506.879 86.2773C506.814 90.1731 506.738 94.312 506.651 98.6951L503.423 98.8135L506.23 118.1C506.392 111.171 506.532 104.704 506.651 98.6951L535.678 97.6304C536.007 80.7808 536.171 67.4928 536.171 57.7666C536.171 51.9711 538.226 47.0713 542.335 43.0672C546.445 39.063 551.555 37.061 557.667 37.061C563.779 37.061 568.889 39.063 572.999 43.0672C577.108 47.0713 579.163 51.9711 579.163 57.7666C579.163 65.7749 578.847 77.84 578.214 93.9619L578.18 95.0304L578.146 96.0726L607.196 95.0071C607.829 78.8485 608.163 66.3498 608.163 57.7666C608.163 44.2382 603.012 31.821 593.237 22.2965C583.334 12.6481 570.795 8.06097 557.667 8.06097C544.538 8.06097 531.999 12.6481 522.097 22.2965C517.416 26.8574 513.796 32.0816 511.293 37.7735C509.977 34.7442 508.311 31.7823 506.252 28.9388C499.771 19.9935 490.987 14.4248 482.223 11.082C461.678 3.19796 436.492 0 408.163 0C396.852 0 385.078 0.908321 372.882 2.64578C363.879 3.8614 354.605 5.5418 345.069 7.66587C340.037 6.0501 334.746 5.21592 329.292 5.21592C316.805 5.21592 302.288 8.71588 291.365 20.5753C280.857 31.9839 278.164 46.3268 278.164 58.2408C278.164 64.0934 278.945 71.2588 280.044 78.8383L280.048 78.8682L280.053 78.8982C281.057 85.7266 281.325 89.4548 281.325 90.9588C281.325 95.4081 281.207 100.739 280.968 106.973L310.026 105.907C309.578 118.666 308.623 134.863 307.164 154.498C305.161 182.738 304.16 203.918 304.16 218.038C304.16 252.073 309.903 274.201 321.389 284.422C321.642 284.647 321.903 284.87 322.17 285.09L290.193 291.576C289.893 295.259 289.753 297.892 289.721 299.632L279.11 140.217C278.846 144.085 278.557 148.128 278.243 152.348L278.24 152.398L278.236 152.447C277.909 157.064 277.607 161.512 277.33 165.789C277.367 161.807 277.385 158.201 277.385 154.972C277.385 144.21 277.224 128.228 276.907 107.122L276.907 107.12C276.592 85.9742 276.436 70.2396 276.436 59.8214C276.436 46.1626 271.278 33.4611 261.088 23.7808C250.989 14.1867 238.353 9.79961 225.308 9.79961C219.388 9.79961 213.525 10.7434 207.889 12.7072C202.153 12.9256 197.692 13.0964 194.511 13.2196C192.467 13.2987 190.937 13.3587 189.932 13.3992C189.563 13.414 189.247 13.427 188.993 13.4377L109.242 13.7517L109.146 13.7527C96.6482 13.8842 82.2026 16.0502 70.2143 24.5051C56.3724 34.2673 50.4206 49.0265 50.4206 63.9309C50.4206 69.7739 51.3102 77.172 52.4919 84.9067L52.5265 85.1336L52.5648 85.3599C53.7615 92.4406 54.0559 96.1954 54.0559 97.5973C54.0559 142.792 46.1287 183.847 30.5923 221.105C25.2013 223.397 19.9433 226.501 15.2571 230.731C5.02663 239.967 0 252.354 0 265.455C0 269.036 0.760605 272.554 0.834286 272.895L0.839762 272.921C0.91745 273.309 1.00192 273.716 1.09216 274.139C1.05797 278.318 0.961702 283.979 0.797777 291.192C0.585926 300.513 0.474174 307.736 0.474174 312.715C0.474174 326.133 5.40203 338.759 15.4004 348.501L15.5317 348.629L15.6647 348.755C25.7638 358.349 38.3993 362.736 51.4443 362.736C64.4279 362.736 77.1188 358.38 87.1974 348.63C96.7613 339.48 101.855 327.655 102.371 314.881C114.32 314.802 128.838 314.684 145.913 314.527L145.955 314.527L145.996 314.526C162.589 314.327 176.666 314.175 188.243 314.07C188.984 321.388 190.497 328.687 193.366 335.244L193.378 335.272L193.39 335.3C197.205 343.97 203.41 351.867 212.434 357.326C221.252 362.659 230.789 364.475 239.534 364.475C252.579 364.475 265.214 360.088 275.313 350.494C285.503 340.813 290.662 328.112 290.662 314.453C290.662 311.37 290.38 307.822 290.044 304.455ZM322.17 285.09L463.469 256.427C464.069 256.825 464.653 257.253 465.222 257.71C470.174 261.609 472.651 267.088 472.651 274.148C472.651 285.95 466.486 293.01 454.158 295.328C443.62 297.33 421.756 298.331 388.564 298.331C355.047 298.331 332.916 293.917 322.17 285.09ZM310.026 105.907L353.47 104.314C353.684 94.5873 353.791 86.395 353.791 79.7367C364.012 77.2078 373.653 75.3111 382.715 74.0466C391.777 72.7821 400.26 72.1499 408.163 72.1499C424.285 72.1499 440.881 74.4681 457.951 79.1045C460.269 79.7367 462.482 80.0528 464.59 80.0528C471.123 80.0528 476.497 77.6293 480.711 72.7821C484.505 68.5672 486.402 63.7201 486.402 58.2408C486.402 48.5465 481.554 41.8554 471.86 38.1674C455.949 32.0558 434.717 29 408.163 29C398.363 29 387.931 29.7903 376.867 31.3709C365.909 32.8461 354.318 35.1116 342.094 38.1674C338.196 35.5331 333.928 34.2159 329.292 34.2159C314.54 34.2159 307.164 42.2242 307.164 58.2408C307.164 61.9288 307.69 67.4082 308.744 74.6788C309.798 81.8441 310.325 87.2708 310.325 90.9588C310.325 95.2651 310.225 100.248 310.026 105.907ZM289.721 299.632L290.039 304.406L290.034 304.356C289.9 303.065 289.815 302.072 289.765 301.337C289.719 300.659 289.713 300.368 289.713 300.368L289.713 300.386C289.713 300.27 289.714 300.148 289.715 300.021L289.717 299.867C289.718 299.79 289.719 299.712 289.721 299.632ZM648.082 118.404L690.747 142.819C693.068 142.678 695.336 142.567 697.548 142.486C697.97 135.426 698.655 116.459 699.603 85.5849C699.814 77.4712 702.29 68.1458 707.032 57.6085C712.933 44.6478 719.624 38.1674 727.105 38.1674C732.69 38.1674 737.643 40.0114 741.963 43.6994C746.599 47.7036 748.917 52.7087 748.917 58.7149C748.917 60.2955 748.707 61.8761 748.285 63.4567C746.178 71.1489 745.124 77.84 745.124 83.5301C745.124 86.4805 744.808 91.0642 744.176 97.2812C743.649 103.393 743.385 107.924 743.385 110.874C743.385 120.885 742.858 135.742 741.805 155.447C741.495 161.245 741.23 166.624 741.011 171.583L769.426 187.843C769.66 179.65 770.1 169.396 770.763 156.995C771.355 145.933 771.791 136.222 772.062 127.921C773.131 145.935 773.638 159.726 773.638 169.514C773.638 176.106 773.482 182.929 773.168 189.985L801.282 206.073C800.84 212.296 800.292 218.655 799.635 225.15C798.16 240.113 797.422 249.017 797.422 251.862C797.422 273.569 805.167 284.422 820.657 284.422C822.975 284.422 825.293 284.106 827.611 283.474C831.299 283.579 838.096 283.843 848.001 284.264C856.641 284.686 863.438 284.896 868.39 284.896C889.546 284.896 907.436 281.66 922.06 275.188L951.388 291.972L846.677 313.234L772.71 279.757C772.452 279.034 772.207 278.308 771.977 277.579C771.879 278.149 771.772 278.716 771.655 279.28L743.686 266.621C743.692 267.106 743.696 267.579 743.699 268.04C743.701 268.343 743.701 268.64 743.701 268.932C743.701 274.728 741.647 279.628 737.537 283.632C733.428 287.636 728.317 289.638 722.206 289.638C715.989 289.638 710.615 287.636 706.084 283.632C701.553 279.733 699.287 274.939 699.287 269.249C699.287 263.634 699.091 255.971 698.698 246.26L669.085 232.857C669.124 233.832 669.164 234.821 669.205 235.825L669.209 235.924L669.214 236.023C669.947 251.305 670.287 262.277 670.287 269.249C670.287 283.793 676.546 296.407 687.023 305.489C696.99 314.236 709.196 318.638 722.206 318.638C735.334 318.638 747.873 314.051 757.775 304.402C764.996 297.367 769.693 288.754 771.655 279.28L772.71 279.757C774.373 284.404 776.621 288.918 779.625 293.127C789.876 307.493 805.279 313.422 820.657 313.422C823.904 313.422 827.105 313.132 830.245 312.575C834.004 312.709 839.46 312.927 846.677 313.234C855.458 313.661 862.764 313.896 868.39 313.896C899.901 313.896 928.479 307.572 951.388 291.972C979.879 272.616 993.174 243.069 993.174 208.396C993.174 170.842 980.813 137.664 949.678 118.215C929.905 105.832 903.71 100.435 874.154 99.2192C873.517 85.7114 873.208 74.5502 873.208 65.6695C873.208 52.815 868.927 40.2648 859.398 30.2203L859.373 30.1939L859.348 30.1676C848.58 18.8747 834.589 14.3833 820.815 14.3833C807.832 14.3833 793.128 18.3039 782.335 30.716C779.243 34.2725 776.859 38.0909 775.04 42.0226C772.227 34.2595 767.42 27.3675 760.918 21.7516L760.855 21.6971L760.791 21.643C751.32 13.5576 739.721 9.16738 727.105 9.16738C700.621 9.16738 686.932 31.7692 680.639 45.5921L680.612 45.65L680.586 45.708C674.894 58.3578 670.971 71.5568 670.615 84.7577C670.24 96.9537 669.909 107.206 669.621 115.555C662.73 116.317 655.548 117.269 648.082 118.404ZM865.821 243.006L922.06 275.188C926.738 273.118 931.081 270.717 935.091 267.984C954.479 254.813 964.174 234.95 964.174 208.396C964.174 177.101 954.216 155.236 934.301 142.802C918.495 132.897 893.838 127.944 860.329 127.944C856.747 127.944 852.216 128.05 846.736 128.261C845.051 101.707 844.208 80.8431 844.208 65.6695C844.208 59.4526 842.258 54.2893 838.359 50.1798C834.039 45.6488 828.191 43.3833 820.815 43.3833C806.063 43.3833 798.687 51.8658 798.687 68.8307C798.687 80.7377 799.319 97.5446 800.583 119.251C801.953 140.853 802.638 157.607 802.638 169.514C802.638 181.129 802.186 193.315 801.282 206.073L844.756 230.951C844.487 234.699 844.199 238.614 843.891 242.695C852.521 242.878 859.831 242.982 865.821 243.006ZM865.821 243.006C866.706 243.009 867.563 243.011 868.39 243.011C869.947 243.011 871.468 242.987 872.955 242.94C904.369 241.945 920.076 230.43 920.076 208.396C920.076 192.38 915.65 181.632 906.799 176.152C900.843 172.386 890.7 170.185 876.371 169.549C873.462 169.42 870.38 169.356 867.126 169.356C865.802 169.356 864.385 169.373 862.874 169.408C858.492 169.508 853.324 169.754 847.369 170.146L847.369 170.148C847.474 172.36 847.527 174.73 847.527 177.259C847.527 184.875 846.994 197.033 845.928 213.731C845.591 219.016 845.2 224.756 844.756 230.951L865.821 243.006ZM200.639 15.8762L200.722 15.8319C198.374 14.8904 196.153 14.163 195.247 13.9631C193.35 13.596 191.788 13.5054 191.584 13.4936L191.566 13.4925C191.081 13.4619 190.698 13.4502 190.519 13.4454C190.141 13.4352 189.847 13.435 189.745 13.435L189.802 42.4304C189.774 42.4318 189.755 42.4329 189.745 42.4336C189.733 42.4345 189.733 42.4349 189.745 42.4349L109.452 42.7511C89.4309 42.9618 79.4206 50.0217 79.4206 63.9309C79.4206 67.4082 80.0001 72.9402 81.1592 80.527C82.4237 88.0084 83.0559 93.6985 83.0559 97.5973C83.0559 151.337 72.6241 200.441 51.7604 244.908C36.5868 247.858 29 254.707 29 265.455C29 265.982 29.3688 267.826 30.1064 270.987C30.1064 275.624 30.001 282.578 29.7903 291.851C29.5795 301.124 29.4742 308.078 29.4742 312.715C29.4742 318.721 31.5289 323.726 35.6384 327.73C39.8533 331.734 45.1219 333.736 51.4443 333.736C57.7666 333.736 62.9825 331.734 67.092 327.73C71.3069 323.726 73.4144 318.721 73.4144 312.715C73.4144 309.237 73.5724 300.333 73.8885 286.003C87.2708 286.003 111.19 285.845 145.647 285.529C162.445 285.326 176.703 285.172 188.424 285.067C201.113 284.953 210.826 284.896 217.563 284.896C216.931 291.429 216.615 296.593 216.615 300.386C216.615 305.547 216.886 310.051 217.428 313.896C217.981 317.824 218.816 321.065 219.934 323.621C223.412 331.523 229.945 335.475 239.534 335.475C245.856 335.475 251.125 333.473 255.339 329.469C259.554 325.465 261.662 320.459 261.662 314.453C261.662 312.873 261.504 310.502 261.188 307.341C260.871 304.285 260.713 301.967 260.713 300.386C260.713 296.593 261.082 290.902 261.82 283.316C262.557 275.729 262.926 270.039 262.926 266.245C262.926 255.814 257.921 249.122 247.911 246.172L246.646 245.54C247.805 203.075 248.385 172.886 248.385 154.972C248.385 144.435 248.227 128.629 247.911 107.555C247.595 86.3751 247.436 70.4639 247.436 59.8214C247.436 53.8151 245.329 48.81 241.114 44.8058C236.899 40.8017 231.631 38.7996 225.308 38.7996C221.304 38.7996 217.616 39.6953 214.244 41.4866L213.253 41.5243C213.213 40.7867 213.159 40.0501 213.091 39.3164L200.639 15.8762ZM170.462 241.114C162.243 241.114 150.494 241.378 135.215 241.904C133.974 241.953 132.759 242.001 131.57 242.046C117.412 242.584 106.931 242.853 100.126 242.853C103.815 234.105 107.195 224.391 110.268 213.711C114.043 200.594 117.353 186.019 120.2 169.988C124.836 143.434 127.154 119.567 127.154 98.3876V84.6365C139.693 84.3204 149.335 84.1623 156.079 84.1623C159.661 84.1623 167.564 84.2677 179.788 84.4784C187.182 84.558 193.496 84.5775 198.731 84.537C200.434 84.5238 202.022 84.5043 203.496 84.4784C203.631 95.4025 203.748 105.069 203.848 113.477C204.14 138.078 204.287 151.91 204.287 154.972C204.287 166.036 203.97 180.631 203.338 198.755C203.173 203.814 203.026 208.532 202.897 212.909C202.531 225.308 202.31 234.973 202.232 241.904C189.856 241.443 180.191 241.183 173.239 241.126C172.259 241.118 171.334 241.114 170.462 241.114ZM170.462 212.114C162.986 212.114 152.998 212.318 140.611 212.71C143.685 200.937 146.389 188.372 148.753 175.057L148.76 175.017L148.767 174.976C152.611 152.965 155.001 132.337 155.828 113.162L156.079 113.162C158.947 113.162 165.136 113.239 174.845 113.399C175.141 138.276 175.287 152.065 175.287 154.972C175.287 165.556 174.983 179.773 174.356 197.744L174.355 197.776L174.354 197.809C174.187 202.915 174.038 207.69 173.907 212.131C172.691 212.12 171.542 212.114 170.462 212.114ZM890.934 210.316C889.481 211.25 884.963 213.199 874.981 213.818C875.329 208.27 875.621 203.179 875.853 198.557C880.251 198.775 883.807 199.158 886.61 199.638C888.284 199.925 889.48 200.212 890.286 200.438C890.648 201.814 891.076 204.328 891.076 208.396C891.076 209.333 891.002 209.95 890.934 210.316ZM1425.96 310.567C1425.06 309.691 1424.2 308.792 1423.38 307.869C1423.56 310.143 1423.69 312.401 1423.69 314.453C1423.69 328.112 1418.53 340.813 1408.34 350.494C1398.24 360.088 1385.6 364.475 1372.56 364.475C1363.81 364.475 1354.28 362.659 1345.46 357.326C1336.43 351.867 1330.23 343.97 1326.41 335.3L1326.39 335.244C1323.52 328.687 1322.01 321.388 1321.27 314.07C1309.69 314.175 1295.61 314.327 1279.02 314.526L1278.98 314.527L1278.94 314.527C1261.86 314.684 1247.34 314.802 1235.4 314.881C1234.88 327.652 1229.79 339.476 1220.23 348.625C1210.15 358.379 1197.45 362.736 1184.47 362.736C1171.42 362.736 1158.79 358.349 1148.69 348.755L1148.56 348.629L1148.42 348.501C1138.43 338.759 1133.5 326.133 1133.5 312.715C1133.5 307.736 1133.61 300.513 1133.82 291.192C1133.99 283.979 1134.08 278.318 1134.12 274.139C1134.07 273.926 1134.03 273.716 1133.98 273.512C1133.94 273.31 1133.9 273.113 1133.86 272.921L1133.86 272.894C1133.78 272.55 1133.02 269.034 1133.02 265.455C1133.02 252.354 1138.05 239.967 1148.28 230.731C1152.97 226.501 1158.23 223.398 1163.62 221.105C1179.15 183.847 1187.08 142.792 1187.08 97.5973C1187.08 96.1954 1186.79 92.4406 1185.59 85.3599L1185.55 85.1336L1185.52 84.9067C1184.33 77.172 1183.45 69.7739 1183.45 63.9309C1183.45 49.0265 1189.4 34.2673 1203.24 24.5051C1215.23 16.0502 1229.67 13.8842 1242.17 13.7527L1242.27 13.7517L1322.02 13.4377C1322.27 13.427 1322.59 13.414 1322.96 13.3992C1323.96 13.3587 1325.49 13.2987 1327.54 13.2196C1330.72 13.0964 1335.18 12.9256 1340.91 12.7072C1346.55 10.7434 1352.41 9.79961 1358.33 9.79961C1371.38 9.79961 1384.01 14.1867 1394.11 23.7808C1404.3 33.4611 1409.46 46.1626 1409.46 59.8214C1409.46 70.2396 1409.62 85.9742 1409.93 107.12C1410.25 128.227 1410.41 144.21 1410.41 154.972C1410.41 170.748 1409.97 195.538 1409.11 229.175C1410.51 230.417 1411.86 231.765 1413.14 233.225C1413.35 230.536 1413.58 227.767 1413.82 224.919L1413.83 224.848L1413.83 224.776C1415.71 203.788 1416.56 188.929 1416.56 179.63C1416.56 165.79 1416.89 145.23 1417.52 118.1C1418.15 90.9633 1418.46 70.9031 1418.46 57.7666C1418.46 44.2382 1423.61 31.821 1433.39 22.2965C1443.29 12.6481 1455.83 8.06097 1468.95 8.06097C1482.08 8.06097 1494.62 12.6481 1504.52 22.2965C1514.3 31.821 1519.45 44.2382 1519.45 57.7666C1519.45 66.3498 1519.12 78.8485 1518.48 95.007C1518.05 108.213 1517.8 118.448 1517.73 125.834L1542.3 121.228L1542.43 121.204C1556.11 118.773 1568.95 116.878 1580.91 115.555C1581.2 107.206 1581.53 96.9538 1581.9 84.7578C1582.26 71.5569 1586.18 58.3579 1591.87 45.708L1591.9 45.65L1591.93 45.5921C1598.22 31.7692 1611.91 9.16738 1638.39 9.16738C1651.01 9.16738 1662.61 13.5576 1672.08 21.643L1672.14 21.6971L1672.21 21.7516C1683.07 31.1381 1689.21 44.0893 1689.21 58.7149C1689.21 62.9053 1688.64 66.9963 1687.59 70.9289L1687.57 71.0243L1687.54 71.1195C1685.87 77.2319 1685.41 81.2329 1685.41 83.5301C1685.41 87.4475 1685.07 92.3489 1684.56 97.7433C1697.56 68.2881 1724.83 45.2249 1759.63 27.6215L1759.69 27.5909L1759.75 27.5606C1773.69 20.5916 1789.55 16.344 1806.64 14.1459L1807.18 14.0771L1807.72 14.0282C1809.17 13.8964 1822.66 12.8678 1847.48 10.9907C1866.11 9.55191 1883.43 16.4781 1895.18 32.1476L1895.26 32.2533L1895.34 32.3598C1903.07 42.8594 1907.15 55.0832 1907.15 68.1984C1907.15 81.9617 1907.66 102.841 1908.71 131.068C1909.87 159.479 1910.47 181.181 1910.47 195.91C1910.47 203.51 1910.62 215.075 1910.94 230.731C1911.25 246.476 1911.42 258.515 1911.42 266.72C1911.42 280.585 1906.07 293.167 1896.19 302.809L1896.18 302.815C1886.12 312.621 1873.4 317.216 1860.13 317.216C1846.86 317.216 1834.14 312.621 1824.08 302.815L1823.95 302.687L1823.82 302.557C1814.12 292.857 1809 280.351 1809 266.72C1809 264.476 1808.96 261.666 1808.89 258.27C1787.34 269.312 1766.48 284.14 1746.31 302.988C1736.92 311.901 1724.78 317.532 1710.76 317.532C1696.98 317.532 1684.47 312.34 1674.7 302.803C1673.97 302.091 1673.27 301.362 1672.58 300.616C1671.48 301.923 1670.31 303.186 1669.06 304.402C1659.16 314.051 1646.62 318.638 1633.49 318.638C1620.48 318.638 1608.27 314.233 1598.3 305.48C1587.83 296.4 1581.57 283.788 1581.57 269.249C1581.57 262.277 1581.23 251.305 1580.5 236.023L1580.5 235.924L1580.49 235.825C1580.19 228.402 1579.95 221.773 1579.79 215.967C1571.54 217.099 1562.52 218.547 1552.71 220.33C1539.98 222.651 1527.25 224.993 1514.51 227.356C1514.23 231.54 1513.9 236.1 1513.52 241.025C1512.5 255.405 1512.02 266.693 1512.02 275.097C1512.02 288.625 1506.87 301.042 1497.1 310.567C1487.19 320.215 1474.65 324.802 1461.53 324.802C1448.4 324.802 1435.86 320.215 1425.96 310.567ZM1349.64 300.386C1349.64 305.547 1349.91 310.051 1350.45 313.896C1351.01 317.824 1351.84 321.065 1352.96 323.621C1356.44 331.523 1362.97 335.475 1372.56 335.475C1378.88 335.475 1384.15 333.473 1388.36 329.469C1392.58 325.465 1394.69 320.459 1394.69 314.453C1394.69 312.873 1394.53 310.502 1394.21 307.341C1393.9 304.285 1393.74 301.967 1393.74 300.386C1393.74 296.593 1394.11 290.902 1394.84 283.316C1395.58 275.729 1395.95 270.039 1395.95 266.245C1395.95 255.814 1390.95 249.122 1380.94 246.172L1379.67 245.54C1380.83 203.075 1381.41 172.886 1381.41 154.972C1381.41 144.435 1381.25 128.629 1380.94 107.555C1380.62 86.3751 1380.46 70.4639 1380.46 59.8214C1380.46 53.8151 1378.35 48.81 1374.14 44.8058C1369.92 40.8017 1364.66 38.7996 1358.33 38.7996C1354.33 38.7996 1350.64 39.6953 1347.27 41.4866L1346.28 41.5243C1346.24 40.7867 1346.18 40.0501 1346.12 39.3165L1333.66 15.8762L1333.75 15.8319C1331.4 14.8903 1329.18 14.163 1328.27 13.9631C1326.38 13.596 1324.81 13.5054 1324.61 13.4936L1324.59 13.4925C1324.11 13.4619 1323.72 13.4502 1323.54 13.4454C1323.17 13.4352 1322.87 13.435 1322.77 13.435L1322.83 42.4304L1322.78 42.4326L1322.77 42.4336C1322.76 42.4345 1322.76 42.4349 1322.77 42.4349L1242.48 42.7511C1222.46 42.9618 1212.45 50.0217 1212.45 63.9309C1212.45 67.4082 1213.02 72.9402 1214.18 80.527C1215.45 88.0084 1216.08 93.6985 1216.08 97.5973C1216.08 151.337 1205.65 200.441 1184.79 244.908C1169.61 247.858 1162.02 254.707 1162.02 265.455C1162.02 265.982 1162.39 267.826 1163.13 270.987C1163.13 275.624 1163.03 282.578 1162.81 291.851C1162.6 301.124 1162.5 308.078 1162.5 312.715C1162.5 318.721 1164.55 323.726 1168.66 327.73C1172.88 331.734 1178.15 333.736 1184.47 333.736C1190.79 333.736 1196.01 331.734 1200.12 327.73C1204.33 323.726 1206.44 318.721 1206.44 312.715C1206.44 309.237 1206.6 300.333 1206.91 286.003C1220.3 286.003 1244.21 285.845 1278.67 285.529C1295.47 285.326 1309.73 285.172 1321.45 285.067C1334.14 284.953 1343.85 284.896 1350.59 284.896C1349.96 291.429 1349.64 296.593 1349.64 300.386ZM1337.31 154.972C1337.31 166.036 1337 180.631 1336.36 198.755C1336.2 203.814 1336.05 208.532 1335.92 212.909C1335.56 225.308 1335.33 234.973 1335.26 241.904C1322.88 241.443 1313.22 241.183 1306.26 241.126C1305.28 241.118 1304.36 241.114 1303.49 241.114C1295.27 241.114 1283.52 241.378 1268.24 241.904C1267.24 241.944 1266.25 241.982 1265.28 242.02L1264.59 242.046C1250.44 242.584 1239.96 242.853 1233.15 242.853C1236.84 234.105 1240.22 224.391 1243.29 213.711C1247.07 200.594 1250.38 186.019 1253.22 169.988C1257.86 143.434 1260.18 119.567 1260.18 98.3876V84.6365C1272.72 84.3204 1282.36 84.1623 1289.1 84.1623C1292.69 84.1623 1300.59 84.2677 1312.81 84.4784C1320.21 84.558 1326.52 84.5775 1331.76 84.537C1333.46 84.5238 1335.05 84.5043 1336.52 84.4784C1336.66 95.4025 1336.77 105.069 1336.87 113.477C1337.16 138.078 1337.31 151.91 1337.31 154.972ZM1307.38 197.809C1307.21 202.915 1307.06 207.69 1306.93 212.131C1305.72 212.12 1304.57 212.114 1303.49 212.114C1296.01 212.114 1286.02 212.318 1273.64 212.71C1276.71 200.937 1279.41 188.372 1281.78 175.057L1281.78 175.017L1281.79 174.976C1285.64 152.965 1288.03 132.337 1288.85 113.162L1289.1 113.162C1291.97 113.162 1298.16 113.239 1307.87 113.399C1308.17 138.276 1308.31 152.065 1308.31 154.972C1308.31 165.556 1308.01 179.773 1307.38 197.744L1307.38 197.809ZM1490.45 57.7666C1490.45 65.7749 1490.13 77.84 1489.5 93.9619C1488.98 109.979 1488.71 121.991 1488.71 129.999C1488.71 130.376 1488.7 130.803 1488.69 131.28C1488.6 134.132 1488.24 138.763 1487.61 145.173C1486.97 152.127 1486.71 157.449 1486.82 161.137L1547.51 149.756C1571.22 145.542 1591.66 143.118 1608.84 142.486C1609.26 135.426 1609.94 116.459 1610.89 85.5849C1611.1 77.4712 1613.58 68.1458 1618.32 57.6085C1624.22 44.6478 1630.91 38.1674 1638.39 38.1674C1643.98 38.1674 1648.93 40.0114 1653.25 43.6994C1657.89 47.7036 1660.21 52.7087 1660.21 58.7149C1660.21 60.2955 1659.99 61.8761 1659.57 63.4567C1657.47 71.1489 1656.41 77.84 1656.41 83.5301C1656.41 86.4805 1656.1 91.0642 1655.46 97.2812C1654.94 103.393 1654.67 107.924 1654.67 110.874C1654.67 120.885 1654.15 135.742 1653.09 155.447C1652.04 175.151 1651.51 190.009 1651.51 200.019C1651.51 207.711 1652.09 219.197 1653.25 234.476C1654.41 249.755 1654.99 261.24 1654.99 268.932C1654.99 274.728 1652.93 279.628 1648.83 283.632C1644.72 287.636 1639.6 289.638 1633.49 289.638C1627.28 289.638 1621.9 287.636 1617.37 283.632C1612.84 279.733 1610.57 274.939 1610.57 269.249C1610.57 261.556 1610.21 250.018 1609.47 234.634C1609.13 226.334 1608.88 219.154 1608.72 213.094C1608.59 207.92 1608.52 203.561 1608.52 200.019C1608.52 194.013 1608.63 188.691 1608.84 184.055C1600.19 184.441 1590.49 185.329 1579.71 186.721C1569.87 187.994 1559.13 189.687 1547.51 191.8C1527.28 195.488 1507.05 199.229 1486.82 203.022C1486.6 210.187 1485.87 222.147 1484.6 238.901C1483.55 253.653 1483.02 265.719 1483.02 275.097C1483.02 280.892 1480.97 285.792 1476.86 289.796C1472.75 293.8 1467.64 295.802 1461.53 295.802C1455.41 295.802 1450.3 293.8 1446.19 289.796C1442.08 285.792 1440.03 280.892 1440.03 275.097C1440.03 264.454 1440.93 248.543 1442.72 227.363C1444.61 206.183 1445.56 190.272 1445.56 179.63C1445.56 166.142 1445.88 145.858 1446.51 118.777C1447.14 91.5911 1447.46 71.2542 1447.46 57.7666C1447.46 51.9711 1449.51 47.0713 1453.62 43.0672C1457.73 39.063 1462.84 37.061 1468.95 37.061C1475.07 37.061 1480.18 39.063 1484.29 43.0672C1488.4 47.0713 1490.45 51.9711 1490.45 57.7666ZM1680.51 200.019C1680.51 192.405 1680.85 181.362 1681.56 166.702C1686.97 180.474 1696.22 192.083 1708.05 201.8C1698.08 209.024 1689.21 216.326 1681.55 223.73C1680.84 213.081 1680.51 205.259 1680.51 200.019ZM1764.82 200.177C1752.54 195.648 1742.15 190.53 1733.67 184.823C1714.71 172.072 1705.23 156.379 1705.23 137.744C1705.23 104.341 1727.73 76.2594 1772.72 53.499C1783.05 48.3358 1795.59 44.8058 1810.34 42.9091C1811.5 42.8038 1824.62 41.8027 1849.7 39.906C1859.18 39.1684 1866.61 42.3823 1871.98 49.5476C1876.09 55.1323 1878.15 61.3493 1878.15 68.1984C1878.15 82.5291 1878.68 103.867 1879.73 132.212C1880.89 160.557 1881.47 181.79 1881.47 195.91C1881.47 203.812 1881.63 215.614 1881.94 231.315C1882.26 247.015 1882.42 258.817 1882.42 266.72C1882.42 272.726 1880.26 277.836 1875.94 282.051C1871.72 286.161 1866.45 288.216 1860.13 288.216C1853.81 288.216 1848.54 286.161 1844.32 282.051C1840.11 277.836 1838 272.726 1838 266.72C1838 261.864 1837.85 254.937 1837.54 245.939C1837.49 244.392 1837.43 242.784 1837.37 241.114C1836.95 229.734 1836.74 221.251 1836.74 215.667C1826.96 218.699 1817.35 222.337 1807.9 226.582C1779.25 239.448 1752.08 257.886 1726.41 281.893C1721.78 286.319 1716.56 288.532 1710.76 288.532C1704.65 288.532 1699.38 286.371 1694.96 282.051C1690.53 277.731 1688.32 272.673 1688.32 266.878C1688.32 261.82 1690.16 257.131 1693.85 252.81C1703.45 241.825 1717.01 230.45 1734.54 218.685C1743.58 212.619 1753.67 206.45 1764.82 200.177ZM1749.65 137.744C1749.65 125.942 1757.13 114.615 1772.09 103.762C1782.47 96.1519 1793.24 90.8972 1804.4 87.9975C1808.54 86.922 1812.73 86.1705 1816.98 85.7429C1824.25 85.1107 1829.73 84.6892 1833.42 84.4784C1833.34 92.7169 1833.48 102.393 1833.82 113.507C1833.97 118.172 1834.15 123.089 1834.37 128.261C1834.54 132.264 1834.71 135.987 1834.85 139.427C1835.22 147.939 1835.49 154.729 1835.68 159.796C1835.82 163.677 1835.91 166.548 1835.95 168.407C1832.58 168.513 1830.15 168.565 1828.68 168.565L1828.07 168.565C1820.43 168.55 1813.38 168.254 1806.92 167.676C1791.73 166.316 1779.8 163.399 1771.14 158.924C1765.87 156.184 1760.97 152.549 1756.44 148.018C1751.91 143.487 1749.65 140.062 1749.65 137.744ZM1789.24 127.147C1794.58 123.232 1799.81 120.324 1804.96 118.275C1805.09 121.885 1805.23 125.621 1805.39 129.482L1805.39 129.539C1805.53 132.677 1805.66 135.634 1805.78 138.409C1795.15 137.191 1788.37 135.174 1784.49 133.178C1783.99 132.915 1783.48 132.628 1782.97 132.316C1784.49 130.845 1786.49 129.141 1789.12 127.236L1789.18 127.192L1789.24 127.147ZM1778.64 137.923C1778.62 137.994 1778.61 138.028 1778.62 138.026C1778.62 138.026 1778.62 138.012 1778.63 137.988C1778.63 137.971 1778.63 137.95 1778.64 137.923Z" fill="#FD677B"/>
<path fill-rule="evenodd" clip-rule="evenodd" d="M1350.45 313.896C1349.91 310.051 1349.64 305.547 1349.64 300.386C1349.64 296.593 1349.96 291.429 1350.59 284.896C1343.85 284.896 1334.14 284.953 1321.45 285.067C1309.73 285.172 1295.47 285.326 1278.67 285.529C1244.21 285.845 1220.3 286.003 1206.91 286.003C1206.6 300.333 1206.44 309.237 1206.44 312.715C1206.44 318.721 1204.33 323.726 1200.12 327.73C1196.01 331.734 1190.79 333.736 1184.47 333.736C1178.15 333.736 1172.88 331.734 1168.66 327.73C1164.55 323.726 1162.5 318.721 1162.5 312.715C1162.5 308.078 1162.6 301.124 1162.81 291.851C1163.03 282.578 1163.13 275.624 1163.13 270.987C1162.39 267.826 1162.02 265.982 1162.02 265.455C1162.02 254.707 1169.61 247.858 1184.79 244.908C1205.65 200.441 1216.08 151.337 1216.08 97.5973C1216.08 93.6985 1215.45 88.0084 1214.18 80.527C1213.02 72.9402 1212.45 67.4082 1212.45 63.9309C1212.45 50.0217 1222.46 42.9618 1242.48 42.7511L1322.77 42.4349C1322.76 42.4349 1322.76 42.4345 1322.77 42.4336L1322.78 42.4326L1322.83 42.4304L1322.77 13.435C1322.87 13.435 1323.17 13.4352 1323.54 13.4454C1323.72 13.4502 1324.11 13.4619 1324.59 13.4925L1324.61 13.4936C1324.81 13.5054 1326.38 13.596 1328.27 13.9631C1329.18 14.163 1331.4 14.8903 1333.75 15.8319L1333.66 15.8762L1346.12 39.3165C1346.18 40.0501 1346.24 40.7867 1346.28 41.5243L1347.27 41.4866C1350.64 39.6953 1354.33 38.7996 1358.33 38.7996C1364.66 38.7996 1369.92 40.8017 1374.14 44.8058C1378.35 48.81 1380.46 53.8151 1380.46 59.8214C1380.46 70.4639 1380.62 86.3751 1380.94 107.555C1381.25 128.629 1381.41 144.435 1381.41 154.972C1381.41 172.886 1380.83 203.075 1379.67 245.54L1380.94 246.172C1390.95 249.122 1395.95 255.814 1395.95 266.245C1395.95 270.039 1395.58 275.729 1394.84 283.316C1394.11 290.902 1393.74 296.593 1393.74 300.386C1393.74 301.967 1393.9 304.285 1394.21 307.341C1394.53 310.502 1394.69 312.873 1394.69 314.453C1394.69 320.459 1392.58 325.465 1388.36 329.469C1384.15 333.473 1378.88 335.475 1372.56 335.475C1362.97 335.475 1356.44 331.523 1352.96 323.621C1351.84 321.065 1351.01 317.824 1350.45 313.896ZM1337.31 154.972C1337.31 166.036 1337 180.631 1336.36 198.755C1336.2 203.814 1336.05 208.532 1335.92 212.909C1335.56 225.308 1335.33 234.973 1335.26 241.904C1322.88 241.443 1313.22 241.183 1306.26 241.126C1305.28 241.118 1304.36 241.114 1303.49 241.114C1295.27 241.114 1283.52 241.378 1268.24 241.904C1267.24 241.944 1266.25 241.982 1265.28 242.02L1264.59 242.046C1250.44 242.584 1239.96 242.853 1233.15 242.853C1236.84 234.105 1240.22 224.391 1243.29 213.711C1247.07 200.594 1250.38 186.019 1253.22 169.988C1257.86 143.434 1260.18 119.567 1260.18 98.3876V84.6365C1272.72 84.3204 1282.36 84.1623 1289.1 84.1623C1292.69 84.1623 1300.59 84.2677 1312.81 84.4784C1320.21 84.558 1326.52 84.5775 1331.76 84.537C1333.46 84.5238 1335.05 84.5043 1336.52 84.4784C1336.66 95.4025 1336.77 105.069 1336.87 113.477C1337.16 138.078 1337.31 151.91 1337.31 154.972Z" fill="#FD677B"/>
</g>
<defs>
<filter id="filter0_d_612_379" x="0" y="0" width="1928.42" height="378.475" filterUnits="userSpaceOnUse" color-interpolation-filters="sRGB">
<feFlood flood-opacity="0" result="BackgroundImageFix"/>
<feColorMatrix in="SourceAlpha" type="matrix" values="0 0 0 0 0 0 0 0 0 0 0 0 0 0 0 0 0 0 127 0" result="hardAlpha"/>
<feOffset dx="17" dy="14"/>
<feComposite in2="hardAlpha" operator="out"/>
<feColorMatrix type="matrix" values="0 0 0 0 0.741176 0 0 0 0 0.988235 0 0 0 0 0.164706 0 0 0 1 0"/>
<feBlend mode="normal" in2="BackgroundImageFix" result="effect1_dropShadow_612_379"/>
<feBlend mode="normal" in="SourceGraphic" in2="effect1_dropShadow_612_379" result="shape"/>
</filter>
</defs>
</svg>
